<svg xmlns="http://www.w3.org/2000/svg" xmlns:xlink="http://www.w3.org/1999/xlink" id="Capa_1" x="0px" y="0px" viewBox="0 0 854.9 854.9" style="enable-background:new 0 0 854.9 854.9;" xml:space="preserve"> <style type="text/css"> .st0{opacity:0.12;} </style> <g class="st0"> <g> <path d="M354.4,409.2h-64c-7.6,0-14.1-2.7-19.4-8c-5.3-5.3-8-11.8-8-19.4v-9.1c0-20.2,7.1-37.4,21.4-51.7 c14.3-14.3,31.5-21.4,51.7-21.4h18.3c4.9,0,9.2-1.8,12.8-5.4c3.6-3.6,5.4-7.9,5.4-12.8v-36.5c0-4.9-1.8-9.2-5.4-12.8 c-3.6-3.6-7.9-5.4-12.8-5.4h-18.3c-19.8,0-38.7,3.9-56.7,11.6c-18,7.7-33.5,18.1-46.7,31.3c-13.1,13.1-23.6,28.7-31.3,46.7 c-7.7,18-11.6,36.9-11.6,56.7v201c0,15.2,5.3,28.2,16,38.8c10.7,10.7,23.6,16,38.8,16h109.6c15.2,0,28.2-5.3,38.8-16 c10.7-10.7,16-23.6,16-38.8V464c0-15.2-5.3-28.2-16-38.8C382.6,414.5,369.6,409.2,354.4,409.2z"></path> <path d="M649,425.2c-10.7-10.7-23.6-16-38.8-16h-64c-7.6,0-14.1-2.7-19.4-8c-5.3-5.3-8-11.8-8-19.4v-9.1 c0-20.2,7.1-37.4,21.4-51.7c14.3-14.3,31.5-21.4,51.7-21.4h18.3c4.9,0,9.2-1.8,12.8-5.4c3.6-3.6,5.4-7.9,5.4-12.8v-36.5 c0-4.9-1.8-9.2-5.4-12.8c-3.6-3.6-7.9-5.4-12.8-5.4h-18.3c-19.8,0-38.7,3.9-56.7,11.6c-18,7.7-33.5,18.1-46.7,31.3 C475.4,282.4,465,298,457.3,316c-7.7,18-11.6,36.9-11.6,56.7v201c0,15.2,5.3,28.2,16,38.8c10.7,10.7,23.6,16,38.8,16h109.6 c15.2,0,28.2-5.3,38.8-16c10.7-10.7,16-23.6,16-38.8V464C665,448.8,659.7,435.9,649,425.2z"></path> </g> </g> </svg>